<mxfile host="app.diagrams.net" modified="2023-04-03T20:53:35.822Z" agent="Mozilla/5.0 (Windows NT 10.0; Win64; x64) AppleWebKit/537.36 (KHTML, like Gecko) Chrome/111.0.0.0 Safari/537.36" etag="LLPpxQ6e0tHoa78ee73H" version="21.1.1" type="device">
  <diagram name="Page-1" id="2YBvvXClWsGukQMizWep">
    <mxGraphModel dx="1222" dy="662" grid="1" gridSize="10" guides="1" tooltips="1" connect="1" arrows="1" fold="1" page="1" pageScale="1" pageWidth="850" pageHeight="1100" math="0" shadow="0">
      <root>
        <mxCell id="0" />
        <mxCell id="1" parent="0" />
        <mxCell id="7rzFK3RBfM0SsrYpBjkJ-1" value="&lt;span style=&quot;font-size: 30px;&quot;&gt;Ecommerce Portfolio&lt;/span&gt;" style="rounded=0;whiteSpace=wrap;html=1;" vertex="1" parent="1">
          <mxGeometry x="10" y="350" width="170" height="230" as="geometry" />
        </mxCell>
        <mxCell id="7rzFK3RBfM0SsrYpBjkJ-2" value="" style="strokeWidth=2;html=1;shape=mxgraph.flowchart.annotation_2;align=left;labelPosition=right;pointerEvents=1;" vertex="1" parent="1">
          <mxGeometry x="180" y="325" width="50" height="280" as="geometry" />
        </mxCell>
        <mxCell id="7rzFK3RBfM0SsrYpBjkJ-4" value="" style="strokeWidth=2;html=1;shape=mxgraph.flowchart.annotation_1;align=left;pointerEvents=1;" vertex="1" parent="1">
          <mxGeometry x="230" y="210" width="50" height="200" as="geometry" />
        </mxCell>
        <mxCell id="7rzFK3RBfM0SsrYpBjkJ-5" value="&lt;font style=&quot;font-size: 20px;&quot;&gt;Upper Navbar&lt;/font&gt;" style="rounded=0;whiteSpace=wrap;html=1;" vertex="1" parent="1">
          <mxGeometry x="280" y="180" width="120" height="60" as="geometry" />
        </mxCell>
        <mxCell id="7rzFK3RBfM0SsrYpBjkJ-6" value="&lt;font style=&quot;font-size: 20px;&quot;&gt;Lower NavBar&lt;/font&gt;" style="rounded=0;whiteSpace=wrap;html=1;" vertex="1" parent="1">
          <mxGeometry x="270" y="370" width="120" height="60" as="geometry" />
        </mxCell>
        <mxCell id="7rzFK3RBfM0SsrYpBjkJ-7" value="" style="endArrow=classic;html=1;rounded=0;exitX=1;exitY=0.5;exitDx=0;exitDy=0;" edge="1" parent="1" source="7rzFK3RBfM0SsrYpBjkJ-5">
          <mxGeometry width="50" height="50" relative="1" as="geometry">
            <mxPoint x="460" y="420" as="sourcePoint" />
            <mxPoint x="500" y="210" as="targetPoint" />
            <Array as="points">
              <mxPoint x="440" y="210" />
            </Array>
          </mxGeometry>
        </mxCell>
        <mxCell id="7rzFK3RBfM0SsrYpBjkJ-8" value="&lt;font style=&quot;font-size: 20px;&quot;&gt;Logo And Nav Links&lt;/font&gt;" style="rounded=0;whiteSpace=wrap;html=1;" vertex="1" parent="1">
          <mxGeometry x="500" y="180" width="120" height="60" as="geometry" />
        </mxCell>
        <mxCell id="7rzFK3RBfM0SsrYpBjkJ-9" value="" style="endArrow=classic;html=1;rounded=0;exitX=1;exitY=0.5;exitDx=0;exitDy=0;" edge="1" parent="1" source="7rzFK3RBfM0SsrYpBjkJ-6">
          <mxGeometry width="50" height="50" relative="1" as="geometry">
            <mxPoint x="460" y="470" as="sourcePoint" />
            <mxPoint x="510" y="400" as="targetPoint" />
          </mxGeometry>
        </mxCell>
        <mxCell id="7rzFK3RBfM0SsrYpBjkJ-12" style="edgeStyle=orthogonalEdgeStyle;rounded=0;orthogonalLoop=1;jettySize=auto;html=1;" edge="1" parent="1" source="7rzFK3RBfM0SsrYpBjkJ-10">
          <mxGeometry relative="1" as="geometry">
            <mxPoint x="720" y="400" as="targetPoint" />
          </mxGeometry>
        </mxCell>
        <mxCell id="7rzFK3RBfM0SsrYpBjkJ-10" value="&lt;font style=&quot;font-size: 20px;&quot;&gt;Add product, Search Button, Add to Cart, Login&lt;/font&gt;" style="rounded=0;whiteSpace=wrap;html=1;" vertex="1" parent="1">
          <mxGeometry x="510" y="330" width="120" height="140" as="geometry" />
        </mxCell>
        <mxCell id="7rzFK3RBfM0SsrYpBjkJ-11" value="" style="endArrow=classic;html=1;rounded=0;exitX=1;exitY=0.5;exitDx=0;exitDy=0;" edge="1" parent="1" source="7rzFK3RBfM0SsrYpBjkJ-8">
          <mxGeometry width="50" height="50" relative="1" as="geometry">
            <mxPoint x="530" y="370" as="sourcePoint" />
            <mxPoint x="720" y="210" as="targetPoint" />
          </mxGeometry>
        </mxCell>
        <mxCell id="7rzFK3RBfM0SsrYpBjkJ-13" value="&lt;font style=&quot;font-size: 20px;&quot;&gt;Bootstrap/ Material UI&lt;/font&gt;" style="rounded=0;whiteSpace=wrap;html=1;" vertex="1" parent="1">
          <mxGeometry x="720" y="180" width="120" height="60" as="geometry" />
        </mxCell>
        <mxCell id="7rzFK3RBfM0SsrYpBjkJ-14" value="&lt;font style=&quot;font-size: 20px;&quot;&gt;Firebase&lt;/font&gt;" style="rounded=0;whiteSpace=wrap;html=1;" vertex="1" parent="1">
          <mxGeometry x="720" y="370" width="120" height="60" as="geometry" />
        </mxCell>
        <mxCell id="7rzFK3RBfM0SsrYpBjkJ-15" value="" style="strokeWidth=2;html=1;shape=mxgraph.flowchart.annotation_1;align=left;pointerEvents=1;" vertex="1" parent="1">
          <mxGeometry x="230" y="530" width="50" height="170" as="geometry" />
        </mxCell>
        <mxCell id="7rzFK3RBfM0SsrYpBjkJ-19" style="edgeStyle=orthogonalEdgeStyle;rounded=0;orthogonalLoop=1;jettySize=auto;html=1;exitX=1;exitY=0.5;exitDx=0;exitDy=0;" edge="1" parent="1" source="7rzFK3RBfM0SsrYpBjkJ-16">
          <mxGeometry relative="1" as="geometry">
            <mxPoint x="509.9999999999998" y="530.3076923076924" as="targetPoint" />
          </mxGeometry>
        </mxCell>
        <mxCell id="7rzFK3RBfM0SsrYpBjkJ-16" value="&lt;font style=&quot;font-size: 20px;&quot;&gt;Featured Products&lt;/font&gt;" style="rounded=0;whiteSpace=wrap;html=1;" vertex="1" parent="1">
          <mxGeometry x="280" y="500" width="120" height="60" as="geometry" />
        </mxCell>
        <mxCell id="7rzFK3RBfM0SsrYpBjkJ-18" style="edgeStyle=orthogonalEdgeStyle;rounded=0;orthogonalLoop=1;jettySize=auto;html=1;exitX=1;exitY=0.5;exitDx=0;exitDy=0;" edge="1" parent="1" source="7rzFK3RBfM0SsrYpBjkJ-17">
          <mxGeometry relative="1" as="geometry">
            <mxPoint x="519.9999999999998" y="699.5384615384614" as="targetPoint" />
          </mxGeometry>
        </mxCell>
        <mxCell id="7rzFK3RBfM0SsrYpBjkJ-17" value="&lt;font style=&quot;font-size: 20px;&quot;&gt;Products and Pagination&lt;/font&gt;" style="rounded=0;whiteSpace=wrap;html=1;" vertex="1" parent="1">
          <mxGeometry x="280" y="670" width="120" height="60" as="geometry" />
        </mxCell>
        <mxCell id="7rzFK3RBfM0SsrYpBjkJ-20" value="&lt;font style=&quot;font-size: 20px;&quot;&gt;React Pagination&lt;/font&gt;&lt;font style=&quot;font-size: 20px;&quot;&gt;&lt;br&gt;&lt;/font&gt;" style="rounded=0;whiteSpace=wrap;html=1;" vertex="1" parent="1">
          <mxGeometry x="510" y="500" width="120" height="60" as="geometry" />
        </mxCell>
        <mxCell id="7rzFK3RBfM0SsrYpBjkJ-21" value="&lt;font style=&quot;font-size: 20px;&quot;&gt;Any UI tool&lt;/font&gt;" style="rounded=0;whiteSpace=wrap;html=1;" vertex="1" parent="1">
          <mxGeometry x="520" y="670" width="120" height="60" as="geometry" />
        </mxCell>
        <mxCell id="7rzFK3RBfM0SsrYpBjkJ-24" value="" style="line;strokeWidth=2;direction=south;html=1;" vertex="1" parent="1">
          <mxGeometry x="335" y="565" width="10" height="100" as="geometry" />
        </mxCell>
        <mxCell id="7rzFK3RBfM0SsrYpBjkJ-25" value="" style="endArrow=classic;html=1;rounded=0;exitX=0.602;exitY=-0.018;exitDx=0;exitDy=0;exitPerimeter=0;" edge="1" parent="1" source="7rzFK3RBfM0SsrYpBjkJ-24">
          <mxGeometry width="50" height="50" relative="1" as="geometry">
            <mxPoint x="370" y="580" as="sourcePoint" />
            <mxPoint x="670" y="625" as="targetPoint" />
          </mxGeometry>
        </mxCell>
        <mxCell id="7rzFK3RBfM0SsrYpBjkJ-26" value="&lt;font style=&quot;font-size: 20px;&quot;&gt;Product Page&lt;/font&gt;" style="rounded=0;whiteSpace=wrap;html=1;" vertex="1" parent="1">
          <mxGeometry x="670" y="590" width="120" height="60" as="geometry" />
        </mxCell>
      </root>
    </mxGraphModel>
  </diagram>
</mxfile>
